<svg width="163" height="142" viewBox="0 0 163 142" fill="none" xmlns="http://www.w3.org/2000/svg">
<path d="M46.8052 69C46.8052 78.9411 54.864 87 64.8052 87L91.8052 87C94.5666 87 96.8052 84.7614 96.8052 82L96.8052 48C96.8052 42.4772 92.328 38 86.8052 38L51.8052 38C49.0437 38 46.8052 40.2386 46.8052 43L46.8052 69Z" fill="#FFF1DA"/>
<path d="M97.7162 83.0826C98.3545 82.2347 98.5514 81.8259 98.2954 81.8811C97.708 81.9465 94.6756 84.6264 91.523 87.8663C88.3704 91.1062 86.2923 93.6783 86.8797 93.6129C87.0781 93.617 87.7249 93.1586 88.78 92.2663C89.3037 91.8187 90.3169 90.8358 91.3635 89.7601L95.4589 85.5512C96.5064 84.475 97.3917 83.5068 97.7162 83.0826Z" fill="#D5D6DB"/>
<path d="M89.1876 56.051C89.6503 55.4363 89.793 55.14 89.6072 55.1801C89.1813 55.2275 86.9825 57.1704 84.6978 59.5183C82.413 61.8661 80.9054 63.732 81.3312 63.6846C81.4756 63.687 81.9454 63.3539 82.7107 62.7067C83.0906 62.382 83.8249 61.6697 84.5839 60.8896L87.5503 57.8414C88.3096 57.0613 88.952 56.3588 89.1876 56.051Z" fill="#D5D6DB"/>
<path d="M96.0827 46.7627C96.2946 46.5174 96.3911 46.3839 96.354 46.3876L95.389 46.4755C95.3096 46.4815 94.6137 47.1414 93.8341 47.9502C93.6555 48.1354 93.4818 48.319 93.3228 48.4904L68.9215 74.7898L72.1395 74.497L96.0827 46.7627Z" fill="#029BC5"/>
<path d="M78.2893 91.0805L55.4197 101.777L65.7064 87.4467L81.3965 71.0793L94.0726 59.7806L128.686 44.9927C129.74 44.5322 128.237 46.342 124.327 50.2402C122.592 51.967 120.378 54.1065 117.738 56.6074C115.425 58.8004 112.703 61.3398 109.651 64.1497C106.219 67.308 102.749 70.663 98.2771 74.6541C98.2791 74.6528 80.1119 90.6749 78.2893 91.0805V91.0805Z" fill="#E1E6E9"/>
<path d="M111.5 67.5092L57.1845 113.366C56.3817 114.052 54.9342 115.4 53.9521 116.376C53.3493 116.975 53.0371 117.32 53.1221 117.293L54.6968 116.797C55.0003 116.701 55.8685 116.069 57.2475 114.941L121.883 63.1404L111.5 67.5092Z" fill="#029BC5"/>
<path d="M47.3805 74.2476C47.7597 73.8002 47.9535 73.5342 47.901 73.5333L47.241 73.5216C47.1515 73.5196 46.3806 74.2792 45.5192 75.2184C45.3553 75.3971 45.1952 75.5746 45.0447 75.7445L24.4869 98.9548L26.2301 99.1971L47.3805 74.2476Z" fill="#029BC5"/>
<path d="M48.5191 93.7603L33.3444 106.282C33.1289 106.46 32.6689 106.879 32.3176 107.219C32.0644 107.464 31.9274 107.61 31.9689 107.59L33.2833 107.139C33.2935 107.135 33.3208 107.116 33.3639 107.081L50.9439 92.9331L48.5191 93.7603Z" fill="#029BC5"/>
<path d="M127.388 47.1289C128.784 45.5972 129.96 44.2693 130.89 43.1756C129.036 44.7565 126.427 47.1342 123.321 50.0712C122.667 50.6953 121.904 51.4776 121.616 51.8189C121.527 51.9247 121.492 51.9791 121.513 51.9766L123.126 51.697C124.73 50.0111 126.164 48.4731 127.388 47.1289Z" fill="#029BC5"/>
<path d="M121.401 51.6282L121.926 51.7391L112.857 62.6342L112.332 62.5234L121.401 51.6282Z" fill="#D5D6DB"/>
<path d="M111.77 57.2298C111.719 57.2087 111.121 57.8156 110.435 58.5855L109.323 59.833C108.639 60.603 108.145 61.2233 108.22 61.2184C108.291 61.2134 108.855 60.6416 109.509 59.9094L110.621 58.662C111.307 57.8926 111.821 57.2515 111.77 57.2298V57.2298Z" fill="#3A556A"/>
<path d="M107.306 60.0022C107.255 59.9811 106.657 60.588 105.97 61.358L104.859 62.6054C104.175 63.3755 103.681 63.9957 103.756 63.9908C103.827 63.9859 104.39 63.4141 105.045 62.6818L106.157 61.4344C106.843 60.6651 107.357 60.024 107.306 60.0022V60.0022Z" fill="#3A556A"/>
<path d="M102.841 62.7747C102.789 62.7545 102.191 63.3611 101.506 64.1304L100.394 65.3778C99.7099 66.1477 99.216 66.768 99.2907 66.7631C99.3621 66.7582 99.9255 66.1864 100.58 65.4543L101.692 64.2069C102.378 63.437 102.893 62.7958 102.841 62.7747V62.7747Z" fill="#3A556A"/>
<path d="M98.3769 65.547C98.3245 65.5269 97.727 66.1335 97.0413 66.9029L95.9296 68.1503C95.2457 68.9203 94.7519 69.5406 94.8266 69.5357C94.8979 69.5308 95.4613 68.9589 96.1162 68.2267L97.2279 66.9793C97.9141 66.2093 98.4284 65.5681 98.3769 65.547V65.547Z" fill="#3A556A"/>
<path d="M93.932 68.3203C93.8799 68.3001 93.2857 68.9046 92.604 69.6712L91.4987 70.9143C90.8173 71.6806 90.3064 72.3189 90.3576 72.3401C90.4089 72.3612 91.0028 71.7571 91.6842 70.9908L92.7895 69.7478C93.471 68.9815 93.9824 68.3425 93.9321 68.3204C93.932 68.3204 93.932 68.3203 93.932 68.3203Z" fill="#3A556A"/>
<path d="M89.4677 71.0929C89.4156 71.0727 88.8215 71.6771 88.1398 72.4438L87.0344 73.6868C86.353 74.4532 85.8422 75.0915 85.8934 75.1127C85.9446 75.1338 86.5385 74.5297 87.2199 73.7634L88.3253 72.5203C89.0067 71.754 89.5182 71.1151 89.4678 71.093C89.4678 71.0929 89.4678 71.0929 89.4677 71.0929Z" fill="#3A556A"/>
<path d="M85.0018 73.8656C84.9497 73.8454 84.3554 74.4498 83.6736 75.2165L82.5681 76.4597C81.8866 77.2261 81.3766 77.8636 81.4287 77.8838C81.4806 77.9039 82.0734 77.301 82.7535 76.5363L83.8591 75.2931C84.5409 74.5264 85.0525 73.8874 85.0018 73.8656Z" fill="#3A556A"/>
<path d="M80.5372 76.6379C80.4851 76.6178 79.8908 77.2223 79.209 77.989L78.1035 79.2322C77.4221 79.9987 76.9121 80.6362 76.9641 80.6563C77.0161 80.6764 77.6089 80.0735 78.289 79.3087L79.3946 78.0655C80.0764 77.2988 80.5879 76.6597 80.5372 76.6379Z" fill="#3A556A"/>
<path d="M76.0731 79.4105C76.021 79.3904 75.4267 79.9948 74.7449 80.7615L73.6394 82.0047C72.9579 82.7711 72.4479 83.4086 72.4999 83.4287C72.5519 83.4489 73.1447 82.846 73.8248 82.0813L74.9304 80.8381C75.6122 80.0714 76.1237 79.4323 76.0731 79.4105Z" fill="#3A556A"/>
<path d="M71.6068 82.1837C71.5556 82.1626 70.9616 82.7667 70.28 83.5332L70.2786 83.5348L69.1731 84.778C68.4916 85.5445 67.9816 86.1819 68.0337 86.2021C68.0857 86.2222 68.6785 85.6193 69.3586 84.8545L70.4641 83.6113C71.146 82.8446 71.6575 82.2055 71.6068 82.1837Z" fill="#3A556A"/>
<path d="M67.1441 84.9556C67.0929 84.9344 66.4989 85.5385 65.8174 86.3049L65.8159 86.3065L64.7104 87.5497C64.0289 88.316 63.5188 88.9535 63.5709 88.9737C63.6229 88.9938 64.2156 88.391 64.8958 87.6263L66.0014 86.3831C66.6832 85.6164 67.1948 84.9774 67.1441 84.9556Z" fill="#3A556A"/>
</svg>
