<svg width="61" height="61" viewBox="0 0 61 61" fill="none" xmlns="http://www.w3.org/2000/svg">
<g filter="url(#filter0_d_108_76)">
<path fill-rule="evenodd" clip-rule="evenodd" d="M30.5 49C41.8218 49 51 39.8218 51 28.5C51 17.1782 41.8218 8 30.5 8C19.1782 8 10 17.1782 10 28.5C10 39.8218 19.1782 49 30.5 49Z" fill="white"/>
</g>
<path d="M38.0001 23.539C37.4051 23.8 36.7711 23.973 36.1101 24.057C36.7901 23.651 37.3091 23.013 37.5531 22.244C36.9191 22.622 36.2191 22.889 35.4731 23.038C34.8711 22.397 34.0131 22 33.0771 22C31.2611 22 29.7991 23.474 29.7991 25.281C29.7991 25.541 29.8211 25.791 29.8751 26.029C27.1481 25.896 24.7351 24.589 23.1141 22.598C22.8311 23.089 22.6651 23.651 22.6651 24.256C22.6651 25.392 23.2501 26.399 24.1221 26.982C23.5951 26.972 23.0781 26.819 22.6401 26.578C22.6401 26.588 22.6401 26.601 22.6401 26.614C22.6401 28.208 23.7771 29.532 25.2681 29.837C25.0011 29.91 24.7101 29.945 24.4081 29.945C24.1981 29.945 23.9861 29.933 23.7871 29.889C24.2121 31.188 25.4181 32.143 26.8521 32.174C25.7361 33.047 24.3191 33.573 22.7851 33.573C22.5161 33.573 22.2581 33.561 22.0001 33.528C23.4531 34.465 25.1751 35 27.0321 35C33.0681 35 36.3681 30 36.3681 25.666C36.3681 25.521 36.3631 25.381 36.3561 25.242C37.0071 24.78 37.5541 24.203 38.0001 23.539Z" fill="#080809"/>
<defs>
<filter id="filter0_d_108_76" x="0" y="0" width="61" height="61" filterUnits="userSpaceOnUse" color-interpolation-filters="sRGB">
<feFlood flood-opacity="0" result="BackgroundImageFix"/>
<feColorMatrix in="SourceAlpha" type="matrix" values="0 0 0 0 0 0 0 0 0 0 0 0 0 0 0 0 0 0 127 0" result="hardAlpha"/>
<feOffset dy="2"/>
<feGaussianBlur stdDeviation="5"/>
<feColorMatrix type="matrix" values="0 0 0 0 0 0 0 0 0 0 0 0 0 0 0 0 0 0 0.1 0"/>
<feBlend mode="normal" in2="BackgroundImageFix" result="effect1_dropShadow_108_76"/>
<feBlend mode="normal" in="SourceGraphic" in2="effect1_dropShadow_108_76" result="shape"/>
</filter>
</defs>
</svg>
